<svg width="100" height="100" viewBox="0 0 100 100" fill="none" xmlns="http://www.w3.org/2000/svg">
    <defs>
        <linearGradient id="grad1" x1="0%" y1="0%" x2="100%" y2="100%">
            <stop offset="0%" style="stop-color:#6d28d9;stop-opacity:1" />
            <stop offset="100%" style="stop-color:#5b21b6;stop-opacity:1" />
        </linearGradient>
    </defs>
    <path d="M45.62 75.9C39.9 75.9 35.36 71.9 35.36 65.58C35.36 58.62 40.54 54.84 48.76 50.1L51.28 48.54C59.5 43.8 64.68 40.02 64.68 33.06C64.68 27.34 60.52 23.18 54.46 23.18C48.58 23.18 44.5 27.26 43.42 32.52H35.8C36.88 22.86 44.94 15.02 54.54 15.02C64.14 15.02 72.2 22.14 72.2 32.52C72.2 41.7 66.58 45.86 58.28 50.66L55.52 52.46C47.46 57.1 43.1 60.72 43.1 66.1C43.1 70.82 46.26 73.82 50.5 73.82C55.42 73.82 58.5 70.9 59.58 66.5H67.1C65.86 75.1 57.26 84.98 45.62 84.98C34.52 84.98 27.8 77.42 27.8 68.3C27.8 59.72 32.98 55.48 41.28 50.68L44.04 48.88C52.1 44.22 56.44 40.6 56.44 35.22C56.44 30.5 53.28 27.5 48.94 27.5C44.78 27.5 41.54 30.42 40.64 34.66H33.06C34.14 24.92 42.28 17.1 51.8 17.1C61.4 17.1 69.46 24.22 69.46 34.58C69.46 43.86 63.84 47.94 55.54 52.74L52.78 54.54C44.72 59.18 40.36 62.8 40.36 68.18C40.36 72.9 43.52 75.9 47.78 75.9C52.7 75.9 55.78 73 56.86 68.58H64.36C63.12 77.18 54.52 87.06 45.62 75.9Z" fill="url(#grad1)"/>
</svg>